<?xml version="1.0" encoding="UTF-8"?>
<svg width="472px" height="429px" viewBox="0 0 472 429" version="1.1" xmlns="http://www.w3.org/2000/svg" xmlns:xlink="http://www.w3.org/1999/xlink">
    <!-- Generator: Sketch 53.2 (72643) - https://sketchapp.com -->
    <title>card-mail</title>
    <desc>Created with Sketch.</desc>
    <g id="Page-1" stroke="none" stroke-width="1" fill="none" fill-rule="evenodd">
        <g id="card-mail" transform="translate(-2.000000, -26.000000)">
            <rect id="Rectangle" x="0" y="0" width="478" height="478"></rect>
            <g id="/icons/ICION_Email" transform="translate(0.000000, 23.000000)" fill="#364451">
                <g id="Email">
                    <path d="M149.910939,207.645677 L3.62121212,392.973677 L3.62121212,96.1618065 C52.1396606,133.776465 101.393939,170.709677 149.910939,207.645677 Z" id="Fill-1"></path>
                    <path d="M473.640061,96.1618065 L473.640061,392.290839 L327.350333,207.645677 C376.604612,170.003845 425.861788,132.387097 473.640061,96.1618065 Z" id="Fill-2"></path>
                    <path d="M473.640061,14.6461935 L473.640061,44.6130581 C472.90452,45.3207019 471.461684,46.0011716 470.754389,46.7088155 C443.227383,68.3199639 414.993516,89.2231897 386.727783,110.806467 C350.515662,138.677435 314.303541,165.84048 277.352692,193.708661 C264.310535,203.452351 251.268377,213.903964 238.255189,223.675525 C199.864547,194.416583 162.209735,165.157641 123.817644,136.578751 C84.7201406,106.611886 44.8897042,76.6450219 5.05637091,45.9981058 C4.3208303,45.2904619 3.61353515,45.2904619 2.87799455,44.6099923 L2.87799455,15.3510503 C2.87799455,9.09095226 7.94204242,3.51146323 15.1843218,3.51146323 L461.33214,3.51146323 C468.574564,2.77657548 473.638467,8.35620387 473.638467,14.6438245 L473.640061,14.6461935 Z" id="Fill-3"></path>
                    <path d="M299.119364,229.224774 L459.191424,432 L18.8447879,432 L178.916848,229.224774 L224.549915,264.063484 C233.23503,271.031226 243.391806,271.031226 253.519612,264.063484 L299.119364,229.224774 Z" id="Fill-4"></path>
                </g>
            </g>
        </g>
    </g>
</svg>