<?xml version="1.0" encoding="UTF-8"?>
<svg width="287px" height="478px" viewBox="0 0 287 478" version="1.1" xmlns="http://www.w3.org/2000/svg" xmlns:xlink="http://www.w3.org/1999/xlink">
    <!-- Generator: Sketch 53.2 (72643) - https://sketchapp.com -->
    <title>card-mobile</title>
    <desc>Created with Sketch.</desc>
    <g id="Page-1" stroke="none" stroke-width="1" fill="none" fill-rule="evenodd">
        <g id="card-mobile" transform="translate(-96.000000, 0.000000)">
            <rect id="Rectangle-Copy-6" x="0" y="0" width="478" height="478"></rect>
            <g id="/icons/ICON_Mobile" transform="translate(96.000000, 0.000000)" fill="#364451">
                <path d="M229.906549,0 L57.6102585,0 C25.9479676,0 0,25.1565699 0,55.8576478 L0,422.142337 C0,452.841418 25.945892,478 57.6102585,478 L229.382442,478 C261.044732,478 286.9927,452.84343 286.9927,422.142337 L286.9927,55.8576478 C287.499475,25.1585824 261.553791,0 229.911738,0 L229.906549,0 Z M143.755809,446.272504 C128.715494,446.272504 116.249012,434.205415 116.249012,419.60253 C116.249012,405.019769 128.694738,392.932541 143.755809,392.932541 C158.796124,392.932541 171.262606,404.999644 171.262606,419.60253 C171.262606,434.696472 158.796643,446.272504 143.755809,446.272504 Z M248.068673,361.741413 L39.4481341,361.741413 L39.4481341,71.9477899 L248.047916,71.9477899 L248.068673,361.741413 Z" id="Fill-1"></path>
            </g>
        </g>
    </g>
</svg>