<?xml version="1.0" encoding="UTF-8"?>
<svg width="84px" height="100px" viewBox="0 0 84 100" version="1.1" xmlns="http://www.w3.org/2000/svg" xmlns:xlink="http://www.w3.org/1999/xlink">
    <!-- Generator: Sketch 57.1 (83088) - https://sketch.com -->
    <title>Group 5</title>
    <desc>Created with Sketch.</desc>
    <g id="Kinkon-Mobile-App" stroke="none" stroke-width="1" fill="none" fill-rule="evenodd">
        <g id="Home-Screen-Intial-Login" transform="translate(-32.000000, -408.000000)" fill="#607D8B">
            <g id="Group-5" transform="translate(32.000000, 408.000000)">
                <path d="M33.668,50 C33.668,55.5547 25.3321,55.5547 25.3321,50 C25.3321,44.4453 33.668,44.4453 33.668,50" id="Fill-1"></path>
                <path d="M58.668,50 C58.668,55.5547 50.3321,55.5547 50.3321,50 C50.3321,44.4453 58.668,44.4453 58.668,50" id="Fill-2"></path>
                <path d="M42,100.000399 C21.773,100.000399 15.129,87.855 9.168,62.363 C4.1328,61.57003 0.332099,57.2614 0.332099,52.082 C0.332099,47.1875 3.7266,43.0703 8.2852,41.961 C5.7149,27.625 7.2579,17.227 12.9883,10.223 C18.6094,3.3402 28.1013,0 42.0003,0 C48.6136,0 53.3093,3.2773 54.2973,8.3477 C60.7817,8.51567 67.6723,9.6797 72.1883,15.1954 C76.743,20.7501 77.8953,29.5194 75.7078,41.9614 C80.2703,43.0669 83.6687,47.188 83.6687,52.0824 C83.6687,57.2972 79.8132,61.6332 74.8054,62.3874 C68.1609,88.8874 61.9104,100.000399 42.0004,100.000399 L42,100.000399 Z M42,4.168 C29.43,4.168 20.992,7.0078 16.211,12.8594 C11.0352,19.1875 9.918,29.1604 12.793,43.3324 L10.75,45.8324 C7.3047,45.8324 4.5,48.6371 4.5,52.0824 C4.5,55.5277 7.3047,58.3324 10.75,58.3324 L12.8828,59.9457 C19.3203,88.1177 25.5778,95.832699 41.9998,95.832699 C59.3518,95.832699 64.4878,86.8679 71.1248,59.9107 L73.1443,58.3248 L73.15993,58.3248 C76.70293,58.3248 79.49583,55.524 79.49583,52.0826 C79.49583,48.6373 76.69113,45.8326 73.24583,45.8326 L71.20283,43.3404 C73.63643,31.1994 72.87863,22.6134 68.96063,17.8324 C65.51533,13.6254 59.81223,12.6722 54.33563,12.5199 C53.18723,20.1488 45.52703,20.8324 37.69863,20.8324 L27.41763,20.8324 C26.26533,20.8324 25.33173,21.76599 25.33173,22.9183 L25.33173,25.0003 L21.16763,25.0003 L21.16763,22.9183 C21.16763,19.473 23.97233,16.6683 27.41763,16.6683 L37.70263,16.6683 C48.57363,16.6683 50.32763,14.8206 50.32763,10.4105 C50.32372,5.8089 46.02293,4.168 41.99953,4.168 L42,4.168 Z" id="Fill-3"></path>
                <path d="M32.742,81.98401 L30.4256,78.5192 C37.3045,73.9176 46.6986,73.9176 53.5736,78.52311 L51.2533,81.98011 C45.7572,78.30041 38.2493,78.29651 32.7413,81.98401 L32.742,81.98401 Z" id="Fill-4"></path>
            </g>
        </g>
    </g>
</svg>